<svg width="160" height="24" viewBox="0 0 160 24" fill="none" xmlns="http://www.w3.org/2000/svg">
<path d="M28.4214 17.0506C28.7982 17.0506 29.1065 17.0227 29.3463 16.9668C29.5975 16.8998 29.7973 16.816 29.9458 16.7155C30.0942 16.6037 30.197 16.4753 30.2541 16.33C30.3111 16.1848 30.3397 16.0228 30.3397 15.8441C30.3397 15.4642 30.157 15.1514 29.7916 14.9056C29.4262 14.6487 28.7982 14.375 27.9076 14.0845C27.5193 13.9504 27.1311 13.7996 26.7429 13.632C26.3546 13.4533 26.0064 13.2354 25.6981 12.9785C25.3898 12.7104 25.1386 12.392 24.9445 12.0233C24.7503 11.6434 24.6533 11.1854 24.6533 10.6492C24.6533 10.1129 24.7561 9.63252 24.9616 9.20799C25.1671 8.77229 25.4583 8.40362 25.8351 8.10198C26.2119 7.80034 26.6686 7.57131 27.2053 7.41491C27.742 7.24733 28.3472 7.16354 29.0209 7.16354C29.8201 7.16354 30.511 7.24733 31.0933 7.41491C31.6757 7.58249 32.1552 7.76682 32.532 7.96791L31.7613 10.0291C31.4302 9.86154 31.0591 9.71631 30.648 9.59342C30.2483 9.45935 29.7631 9.39232 29.1921 9.39232C28.5527 9.39232 28.0902 9.4817 27.8048 9.66045C27.5307 9.82803 27.3937 10.0906 27.3937 10.4481C27.3937 10.6603 27.4451 10.8391 27.5479 10.9843C27.6506 11.1295 27.7934 11.2636 27.9761 11.3865C28.1702 11.4982 28.3871 11.6043 28.6269 11.7049C28.8781 11.7943 29.1522 11.8892 29.449 11.9898C30.0656 12.2132 30.6023 12.4367 31.0591 12.6601C31.5158 12.8724 31.8926 13.1237 32.1895 13.4142C32.4978 13.7047 32.7262 14.0454 32.8746 14.4364C33.023 14.8274 33.0973 15.3022 33.0973 15.8608C33.0973 16.9445 32.709 17.788 31.9326 18.3912C31.1561 18.9834 29.9857 19.2794 28.4214 19.2794C27.8961 19.2794 27.4223 19.2459 26.9998 19.1789C26.5773 19.123 26.2005 19.0504 25.8694 18.961C25.5496 18.8716 25.2699 18.7767 25.0301 18.6761C24.8017 18.5756 24.6076 18.4806 24.4478 18.3912L25.2014 16.3133C25.5553 16.5032 25.9892 16.6764 26.5031 16.8328C27.0283 16.978 27.6678 17.0506 28.4214 17.0506Z" fill="#031628"/>
<path d="M34.8962 8.03495L37.4482 7.63276V10.2302H40.5141V12.3082H37.4482V15.4084C37.4482 15.9334 37.5396 16.3524 37.7223 16.6652C37.9164 16.978 38.2989 17.1344 38.8698 17.1344C39.1439 17.1344 39.4236 17.1121 39.7091 17.0674C40.006 17.0115 40.2743 16.9389 40.5141 16.8495L40.8738 18.7934C40.5655 18.9163 40.2229 19.0225 39.8461 19.1118C39.4693 19.2012 39.0068 19.2459 38.4588 19.2459C37.7622 19.2459 37.1856 19.1565 36.7289 18.9778C36.2721 18.7878 35.9067 18.5309 35.6327 18.2069C35.3586 17.8718 35.1645 17.4696 35.0503 17.0003C34.9476 16.5311 34.8962 16.0116 34.8962 15.4419V8.03495Z" fill="#031628"/>
<path d="M48.0218 12.4422C47.7934 12.3864 47.5251 12.3305 47.2168 12.2747C46.9085 12.2076 46.5773 12.1741 46.2234 12.1741C46.0635 12.1741 45.8694 12.1909 45.641 12.2244C45.4241 12.2467 45.2585 12.2747 45.1443 12.3082V19.0448H42.5923V10.6994C43.049 10.543 43.5857 10.3978 44.2023 10.2637C44.8303 10.1185 45.5268 10.0459 46.2919 10.0459C46.4289 10.0459 46.5945 10.057 46.7886 10.0794C46.9827 10.0906 47.1768 10.1129 47.3709 10.1464C47.565 10.1688 47.7592 10.2023 47.9533 10.247C48.1474 10.2805 48.313 10.3252 48.45 10.381L48.0218 12.4422Z" fill="#031628"/>
<path d="M53.0935 17.302C53.3447 17.302 53.5845 17.2964 53.8128 17.2852C54.0412 17.2741 54.2239 17.2573 54.3609 17.235V15.3413C54.2581 15.319 54.104 15.2966 53.8985 15.2743C53.6929 15.252 53.5045 15.2408 53.3332 15.2408C53.0935 15.2408 52.8651 15.2575 52.6481 15.2911C52.4426 15.3134 52.2599 15.3637 52.1001 15.4419C51.9402 15.5201 51.8146 15.6262 51.7232 15.7603C51.6319 15.8943 51.5862 16.0619 51.5862 16.263C51.5862 16.654 51.7175 16.9277 51.9802 17.0841C52.2542 17.2294 52.6253 17.302 53.0935 17.302ZM52.8879 9.9956C53.6415 9.9956 54.2696 10.0794 54.772 10.247C55.2744 10.4145 55.674 10.6547 55.9709 10.9676C56.2792 11.2804 56.4962 11.6602 56.6218 12.1071C56.7474 12.554 56.8102 13.0511 56.8102 13.5985V18.7934C56.4448 18.8716 55.9367 18.961 55.2858 19.0616C54.635 19.1733 53.8471 19.2291 52.9222 19.2291C52.3398 19.2291 51.8089 19.1789 51.3293 19.0783C50.8611 18.9778 50.4558 18.8158 50.1132 18.5923C49.7707 18.3577 49.5081 18.0561 49.3254 17.6874C49.1427 17.3187 49.0513 16.8663 49.0513 16.33C49.0513 15.8161 49.1541 15.3804 49.3596 15.0229C49.5766 14.6654 49.862 14.3806 50.216 14.1683C50.57 13.956 50.9753 13.8052 51.4321 13.7158C51.8888 13.6153 52.3627 13.565 52.8537 13.565C53.1848 13.565 53.476 13.5818 53.7272 13.6153C53.9898 13.6376 54.2011 13.6711 54.3609 13.7158V13.4812C54.3609 13.0567 54.2296 12.7159 53.967 12.459C53.7043 12.202 53.2476 12.0736 52.5968 12.0736C52.1629 12.0736 51.7347 12.1071 51.3122 12.1741C50.8897 12.23 50.5243 12.3138 50.216 12.4255L49.8906 10.4145C50.039 10.3699 50.2217 10.3252 50.4387 10.2805C50.667 10.2246 50.9125 10.1799 51.1752 10.1464C51.4378 10.1017 51.7118 10.0682 51.9973 10.0459C52.2942 10.0124 52.591 9.9956 52.8879 9.9956Z" fill="#031628"/>
<path d="M59.1179 10.5319C59.5518 10.409 60.1113 10.2972 60.7964 10.1967C61.4815 10.085 62.2009 10.0291 62.9545 10.0291C63.7195 10.0291 64.3532 10.1297 64.8556 10.3308C65.3695 10.5207 65.7748 10.7944 66.0717 11.1519C66.3686 11.5094 66.5798 11.9339 66.7054 12.4255C66.831 12.917 66.8938 13.4645 66.8938 14.0677V19.0448H64.3418V14.3694C64.3418 13.565 64.2333 12.9952 64.0164 12.6601C63.7994 12.3249 63.3941 12.1574 62.8003 12.1574C62.6176 12.1574 62.4235 12.1685 62.218 12.1909C62.0125 12.202 61.8298 12.2188 61.6699 12.2411V19.0448H59.1179V10.5319Z" fill="#031628"/>
<path d="M71.379 14.5705C71.379 15.3413 71.556 15.9614 71.91 16.4306C72.264 16.8998 72.7892 17.1344 73.4857 17.1344C73.7141 17.1344 73.9254 17.1288 74.1195 17.1177C74.3136 17.0953 74.4734 17.073 74.599 17.0506V12.5093C74.4392 12.4087 74.2279 12.3249 73.9653 12.2579C73.7141 12.1909 73.4572 12.1574 73.1946 12.1574C71.9842 12.1574 71.379 12.9617 71.379 14.5705ZM77.1511 18.7599C76.9227 18.8269 76.6601 18.894 76.3632 18.961C76.0663 19.0169 75.7523 19.0671 75.4212 19.1118C75.1015 19.1565 74.7703 19.19 74.4278 19.2124C74.0966 19.2459 73.7769 19.2626 73.4686 19.2626C72.7264 19.2626 72.0641 19.1565 71.4818 18.9442C70.8995 18.732 70.4085 18.4303 70.0088 18.0393C69.6092 17.6371 69.3009 17.1568 69.0839 16.5982C68.8784 16.0284 68.7756 15.3916 68.7756 14.6878C68.7756 13.9728 68.867 13.3304 69.0497 12.7606C69.2324 12.1797 69.495 11.6881 69.8375 11.286C70.1801 10.8838 70.5969 10.5765 71.0879 10.3643C71.5903 10.152 72.1612 10.0459 72.8006 10.0459C73.1546 10.0459 73.4686 10.0794 73.7427 10.1464C74.0281 10.2135 74.3136 10.3084 74.599 10.4313V6.44296L77.1511 6.04077V18.7599Z" fill="#031628"/>
<path d="M85.3127 14.5705C85.3127 12.9617 84.7075 12.1574 83.4972 12.1574C83.2345 12.1574 82.9719 12.1909 82.7093 12.2579C82.4581 12.3249 82.2525 12.4087 82.0927 12.5093V17.0506C82.2183 17.073 82.3782 17.0953 82.5723 17.1177C82.7664 17.1288 82.9776 17.1344 83.206 17.1344C83.9025 17.1344 84.4278 16.8998 84.7817 16.4306C85.1357 15.9614 85.3127 15.3413 85.3127 14.5705ZM87.9161 14.6375C87.9161 15.3413 87.8076 15.9781 87.5907 16.5479C87.3852 17.1177 87.0826 17.6036 86.6829 18.0058C86.2833 18.408 85.7923 18.7208 85.2099 18.9442C84.6276 19.1565 83.9653 19.2626 83.2231 19.2626C82.9148 19.2626 82.5894 19.2459 82.2468 19.2124C81.9157 19.19 81.5846 19.1565 81.2534 19.1118C80.9337 19.0671 80.6254 19.0169 80.3285 18.961C80.0317 18.894 79.769 18.8269 79.5407 18.7599V6.44296L82.0927 6.04077V10.4313C82.3782 10.3084 82.675 10.2135 82.9833 10.1464C83.2916 10.0794 83.6228 10.0459 83.9767 10.0459C84.6162 10.0459 85.1814 10.1576 85.6724 10.381C86.1634 10.5933 86.5744 10.9005 86.9056 11.3027C87.2367 11.7049 87.4879 12.1909 87.6592 12.7606C87.8305 13.3192 87.9161 13.9448 87.9161 14.6375Z" fill="#031628"/>
<path d="M98.3043 14.6207C98.3043 15.3134 98.2016 15.9502 97.996 16.5311C97.7905 17.1009 97.4936 17.5925 97.1054 18.0058C96.7172 18.408 96.249 18.7208 95.7009 18.9442C95.1643 19.1677 94.5591 19.2794 93.8854 19.2794C93.2231 19.2794 92.6179 19.1677 92.0699 18.9442C91.5332 18.7208 91.0707 18.408 90.6825 18.0058C90.2943 17.5925 89.9917 17.1009 89.7747 16.5311C89.5578 15.9502 89.4493 15.3134 89.4493 14.6207C89.4493 13.9281 89.5578 13.2969 89.7747 12.7271C90.0031 12.1574 90.3114 11.6714 90.6996 11.2692C91.0993 10.867 91.5674 10.5542 92.1041 10.3308C92.6522 10.1073 93.246 9.9956 93.8854 9.9956C94.5362 9.9956 95.13 10.1073 95.6667 10.3308C96.2148 10.5542 96.6829 10.867 97.0711 11.2692C97.4594 11.6714 97.762 12.1574 97.9789 12.7271C98.1959 13.2969 98.3043 13.9281 98.3043 14.6207ZM95.7009 14.6207C95.7009 13.8499 95.5411 13.2466 95.2214 12.8109C94.9131 12.364 94.4677 12.1406 93.8854 12.1406C93.3031 12.1406 92.852 12.364 92.5323 12.8109C92.2126 13.2466 92.0527 13.8499 92.0527 14.6207C92.0527 15.3916 92.2126 16.0061 92.5323 16.4641C92.852 16.911 93.3031 17.1344 93.8854 17.1344C94.4677 17.1344 94.9131 16.911 95.2214 16.4641C95.5411 16.0061 95.7009 15.3916 95.7009 14.6207Z" fill="#031628"/>
<path d="M102.868 17.2517C103.336 17.2517 103.667 17.207 103.861 17.1177C104.055 17.0283 104.152 16.8551 104.152 16.5982C104.152 16.3971 104.027 16.2239 103.775 16.0787C103.524 15.9223 103.142 15.7491 102.628 15.5592C102.228 15.4139 101.863 15.2631 101.532 15.1067C101.212 14.9503 100.938 14.766 100.709 14.5537C100.481 14.3303 100.304 14.0677 100.178 13.7661C100.053 13.4645 99.9901 13.1014 99.9901 12.6768C99.9901 11.8501 100.304 11.1966 100.932 10.7162C101.56 10.2358 102.422 9.9956 103.518 9.9956C104.066 9.9956 104.592 10.0459 105.094 10.1464C105.597 10.2358 105.996 10.3363 106.293 10.4481L105.848 12.392C105.551 12.2914 105.225 12.202 104.871 12.1238C104.529 12.0456 104.141 12.0065 103.707 12.0065C102.908 12.0065 102.508 12.2244 102.508 12.6601C102.508 12.7606 102.525 12.85 102.559 12.9282C102.593 13.0064 102.662 13.0846 102.765 13.1628C102.868 13.2299 103.005 13.3081 103.176 13.3974C103.359 13.4756 103.587 13.565 103.861 13.6656C104.42 13.8666 104.883 14.0677 105.248 14.2688C105.614 14.4588 105.899 14.671 106.105 14.9056C106.322 15.1291 106.47 15.3804 106.55 15.6597C106.641 15.939 106.687 16.263 106.687 16.6317C106.687 17.5031 106.35 18.1622 105.676 18.6091C105.014 19.056 104.072 19.2794 102.85 19.2794C102.051 19.2794 101.383 19.2124 100.846 19.0783C100.321 18.9442 99.9558 18.8325 99.7503 18.7432L100.178 16.7155C100.612 16.883 101.058 17.0171 101.514 17.1177C101.971 17.207 102.422 17.2517 102.868 17.2517Z" fill="#031628"/>
<path d="M111.181 17.2517C111.649 17.2517 111.98 17.207 112.174 17.1177C112.368 17.0283 112.465 16.8551 112.465 16.5982C112.465 16.3971 112.339 16.2239 112.088 16.0787C111.837 15.9223 111.455 15.7491 110.941 15.5592C110.541 15.4139 110.176 15.2631 109.845 15.1067C109.525 14.9503 109.251 14.766 109.022 14.5537C108.794 14.3303 108.617 14.0677 108.491 13.7661C108.366 13.4645 108.303 13.1014 108.303 12.6768C108.303 11.8501 108.617 11.1966 109.245 10.7162C109.873 10.2358 110.735 9.9956 111.831 9.9956C112.379 9.9956 112.905 10.0459 113.407 10.1464C113.91 10.2358 114.309 10.3363 114.606 10.4481L114.161 12.392C113.864 12.2914 113.538 12.202 113.184 12.1238C112.842 12.0456 112.454 12.0065 112.02 12.0065C111.22 12.0065 110.821 12.2244 110.821 12.6601C110.821 12.7606 110.838 12.85 110.872 12.9282C110.906 13.0064 110.975 13.0846 111.078 13.1628C111.181 13.2299 111.318 13.3081 111.489 13.3974C111.671 13.4756 111.9 13.565 112.174 13.6656C112.733 13.8666 113.196 14.0677 113.561 14.2688C113.927 14.4588 114.212 14.671 114.418 14.9056C114.635 15.1291 114.783 15.3804 114.863 15.6597C114.954 15.939 115 16.263 115 16.6317C115 17.5031 114.663 18.1622 113.989 18.6091C113.327 19.056 112.385 19.2794 111.163 19.2794C110.364 19.2794 109.696 19.2124 109.159 19.0783C108.634 18.9442 108.269 18.8325 108.063 18.7432L108.491 16.7155C108.925 16.883 109.371 17.0171 109.827 17.1177C110.284 17.207 110.735 17.2517 111.181 17.2517Z" fill="#031628"/>
<path d="M18.0078 11.8712C18.0078 16.7707 13.9766 20.7424 9.00391 20.7424C4.03119 20.7424 0 16.7707 0 11.8712C0 6.97178 4.03119 3 9.00391 3C13.9766 3 18.0078 6.97178 18.0078 11.8712Z" fill="url(#paint0_linear_1591_6)"/>
<path d="M18.0078 11.8712C18.0078 16.7707 13.9766 20.7424 9.00391 20.7424C4.03119 20.7424 0 16.7707 0 11.8712C0 6.97178 4.03119 3 9.00391 3C13.9766 3 18.0078 6.97178 18.0078 11.8712Z" fill="url(#paint1_radial_1591_6)"/>
<path d="M3.0013 14.9597C3.0013 14.6149 3.28498 14.3355 3.63491 14.3355H14.3729C14.7228 14.3355 15.0065 14.6149 15.0065 14.9597V21.1039C15.0065 21.4486 14.7228 21.7281 14.3729 21.7281H3.63491C3.28498 21.7281 3.0013 21.4486 3.0013 21.1039V14.9597Z" fill="url(#paint2_linear_1591_6)"/>
<path d="M3.0013 8.05988C3.0013 7.71511 3.28498 7.43561 3.63491 7.43561H13.8226C14.3287 7.43561 14.6305 7.9913 14.3498 8.40617L7.8581 18.0002C7.74058 18.1739 7.54275 18.2782 7.3309 18.2782H3.63491C3.28498 18.2782 3.0013 17.9987 3.0013 17.6539V8.05988Z" fill="white"/>
<path d="M123.004 19V8.81818H124.849V13.1286H129.567V8.81818H131.416V19H129.567V14.6747H124.849V19H123.004ZM133.343 19V11.3636H135.142V19H133.343ZM134.248 10.2798C133.962 10.2798 133.717 10.1854 133.512 9.99645C133.306 9.80421 133.203 9.57386 133.203 9.3054C133.203 9.03362 133.306 8.80327 133.512 8.61435C133.717 8.42211 133.962 8.32599 134.248 8.32599C134.536 8.32599 134.781 8.42211 134.983 8.61435C135.189 8.80327 135.292 9.03362 135.292 9.3054C135.292 9.57386 135.189 9.80421 134.983 9.99645C134.781 10.1854 134.536 10.2798 134.248 10.2798ZM138.793 8.81818V19H136.993V8.81818H138.793ZM144.511 11.3636V12.7557H139.997V11.3636H144.511ZM141.126 19V10.6428C141.126 10.129 141.232 9.70147 141.444 9.36008C141.659 9.0187 141.948 8.76349 142.309 8.59446C142.67 8.42543 143.071 8.34091 143.512 8.34091C143.824 8.34091 144.1 8.36577 144.342 8.41548C144.584 8.4652 144.763 8.50994 144.879 8.54972L144.521 9.94176C144.445 9.91856 144.349 9.89536 144.233 9.87216C144.117 9.84564 143.988 9.83239 143.845 9.83239C143.51 9.83239 143.273 9.91359 143.134 10.076C142.998 10.2351 142.93 10.4638 142.93 10.7621V19H141.126ZM149.014 19.1491C148.249 19.1491 147.588 18.9901 147.031 18.6719C146.477 18.3504 146.051 17.8963 145.753 17.3097C145.455 16.7197 145.306 16.0253 145.306 15.2266C145.306 14.4411 145.455 13.7517 145.753 13.1584C146.055 12.5618 146.476 12.0978 147.016 11.7663C147.556 11.4316 148.191 11.2642 148.92 11.2642C149.391 11.2642 149.835 11.3404 150.252 11.4929C150.673 11.642 151.044 11.8741 151.366 12.1889C151.691 12.5038 151.946 12.9048 152.132 13.392C152.317 13.8759 152.41 14.4527 152.41 15.1222V15.674H146.151V14.4609H150.685C150.682 14.1162 150.607 13.8097 150.461 13.5412C150.315 13.2694 150.111 13.0556 149.85 12.8999C149.591 12.7441 149.289 12.6662 148.945 12.6662C148.577 12.6662 148.254 12.7557 147.975 12.9347C147.697 13.1103 147.48 13.3423 147.324 13.6307C147.172 13.9157 147.094 14.2289 147.09 14.5703V15.6293C147.09 16.0734 147.172 16.4545 147.334 16.7727C147.496 17.0876 147.723 17.3295 148.015 17.4986C148.307 17.6643 148.648 17.7472 149.039 17.7472C149.301 17.7472 149.538 17.7107 149.75 17.6378C149.962 17.5616 150.146 17.4505 150.302 17.3047C150.458 17.1589 150.575 16.9782 150.655 16.7628L152.335 16.9517C152.229 17.3958 152.027 17.7836 151.729 18.1151C151.434 18.4432 151.056 18.6984 150.595 18.8807C150.135 19.0597 149.608 19.1491 149.014 19.1491Z" fill="#113B6C"/>
<defs>
<linearGradient id="paint0_linear_1591_6" x1="9.00391" y1="3" x2="9.00391" y2="21.7281" gradientUnits="userSpaceOnUse">
<stop stop-color="white"/>
<stop offset="1" stop-color="white"/>
</linearGradient>
<radialGradient id="paint1_radial_1591_6" cx="0" cy="0" r="1" gradientUnits="userSpaceOnUse" gradientTransform="translate(5.50239 25.8899) rotate(-82.0383) scale(14.4455 13.9116)">
<stop stop-color="white"/>
<stop offset="0.0001" stop-color="#D8D8D8"/>
<stop offset="1" stop-color="#AEDEFA"/>
</radialGradient>
<linearGradient id="paint2_linear_1591_6" x1="16.8823" y1="21.7281" x2="3.8524" y2="9.79596" gradientUnits="userSpaceOnUse">
<stop offset="0.5625" stop-color="#113A6B"/>
<stop offset="1" stop-color="#2B80E2"/>
</linearGradient>
</defs>
</svg>
